<svg xmlns="http://www.w3.org/2000/svg" width="192" height="192" viewBox="0 0 24 24" shape-rendering="crispEdges"><rect x="2" y="20" width="20" height="2" fill="#0000002b"/><rect x="2" y="8" width="17" height="13" fill="#2B2B3A"/><rect x="3" y="9" width="15" height="11" fill="#9CC9E8"/><rect x="1" y="5" width="19" height="5" fill="#2B2B3A"/><rect x="2" y="6" width="17" height="3" fill="#5D8DB5"/><rect x="4" y="11" width="5" height="6" fill="#2B2B3A"/><rect x="5" y="12" width="3" height="4" fill="#FFFFFF"/><rect x="6" y="11" width="1" height="1" fill="#F2C14E"/><rect x="8" y="11" width="5" height="6" fill="#2B2B3A"/><rect x="9" y="12" width="3" height="4" fill="#FFFFFF"/><rect x="6" y="13" width="1" height="2" fill="#3E7CC4"/><rect x="10" y="13" width="1" height="2" fill="#C8453B"/><rect x="12" y="13" width="6" height="8" fill="#2B2B3A"/><rect x="13" y="14" width="4" height="6" fill="#8B5A2B"/><rect x="14" y="1" width="4" height="4" fill="#2B2B3A"/><rect x="15" y="2" width="2" height="2" fill="#FFFFFF"/><rect x="17" y="-1" width="4" height="4" fill="#2B2B3A"/><rect x="18" y="0" width="2" height="2" fill="#FFFFFF"/><rect x="11" y="2" width="3" height="3" fill="#2B2B3A"/><rect x="12" y="3" width="1" height="1" fill="#FFFFFF"/><rect x="18" y="15" width="5" height="6" fill="#2B2B3A"/><rect x="19" y="16" width="3" height="4" fill="#F2C14E"/></svg>