<svg xmlns="http://www.w3.org/2000/svg" width="192" height="192" viewBox="0 0 24 24" shape-rendering="crispEdges"><rect x="2" y="20" width="20" height="2" fill="#0000002b"/><rect x="2" y="7" width="14" height="14" fill="#2B2B3A"/><rect x="3" y="8" width="12" height="12" fill="#C8453B"/><rect x="1" y="4" width="16" height="5" fill="#2B2B3A"/><rect x="2" y="5" width="14" height="3" fill="#8B3A30"/><rect x="5" y="11" width="8" height="10" fill="#2B2B3A"/><rect x="6" y="12" width="6" height="8" fill="#F4E9D0"/><rect x="6" y="12" width="6" height="1" fill="#8B5A2B"/><rect x="8" y="12" width="1" height="8" fill="#8B5A2B"/><rect x="10" y="12" width="1" height="8" fill="#8B5A2B"/><rect x="15" y="13" width="8" height="5" fill="#2B2B3A"/><rect x="16" y="14" width="6" height="3" fill="#5A8F45"/><rect x="17" y="10" width="5" height="5" fill="#2B2B3A"/><rect x="18" y="11" width="3" height="3" fill="#7BB661"/><rect x="14" y="15" width="6" height="6" fill="#2B2B3A"/><rect x="15" y="16" width="4" height="4" fill="#1B1B22"/><rect x="16" y="17" width="2" height="2" fill="#F2C14E"/><rect x="19" y="16" width="5" height="5" fill="#2B2B3A"/><rect x="20" y="17" width="3" height="3" fill="#1B1B22"/><rect x="21" y="18" width="1" height="1" fill="#F2C14E"/></svg>